<mxfile host="65bd71144e">
    <diagram id="ZgFnnDiqFNPohept8Lre" name="ページ1">
        <mxGraphModel dx="1254" dy="722" grid="1" gridSize="10" guides="1" tooltips="1" connect="1" arrows="1" fold="1" page="1" pageScale="1" pageWidth="827" pageHeight="1169" math="0" shadow="0">
            <root>
                <mxCell id="0"/>
                <mxCell id="1" parent="0"/>
                <mxCell id="43" value="" style="rounded=0;whiteSpace=wrap;html=1;" vertex="1" parent="1">
                    <mxGeometry x="110" y="780" width="630" height="200" as="geometry"/>
                </mxCell>
                <mxCell id="35" value="" style="rounded=0;whiteSpace=wrap;html=1;" vertex="1" parent="1">
                    <mxGeometry x="90" y="320" width="680" height="60" as="geometry"/>
                </mxCell>
                <mxCell id="29" value="" style="rounded=0;whiteSpace=wrap;html=1;" vertex="1" parent="1">
                    <mxGeometry x="90" y="210" width="680" height="60" as="geometry"/>
                </mxCell>
                <mxCell id="5" value="" style="rounded=1;whiteSpace=wrap;html=1;container=0;" vertex="1" parent="1">
                    <mxGeometry x="60" y="1030" width="204" height="60" as="geometry"/>
                </mxCell>
                <mxCell id="6" value="スコア一覧へ戻る" style="text;html=1;align=center;verticalAlign=middle;whiteSpace=wrap;rounded=0;fontSize=19;container=0;" vertex="1" parent="1">
                    <mxGeometry x="80" y="1045" width="164" height="30" as="geometry"/>
                </mxCell>
                <mxCell id="8" value="" style="rounded=1;whiteSpace=wrap;html=1;container=0;" vertex="1" parent="1">
                    <mxGeometry x="318" y="1030" width="180" height="60" as="geometry"/>
                </mxCell>
                <mxCell id="9" value="CSV出力" style="text;html=1;align=center;verticalAlign=middle;whiteSpace=wrap;rounded=0;fontSize=19;container=0;" vertex="1" parent="1">
                    <mxGeometry x="335" y="1045" width="143" height="30" as="geometry"/>
                </mxCell>
                <mxCell id="13" value="" style="group" vertex="1" connectable="0" parent="1">
                    <mxGeometry x="180" y="80" width="480" height="80" as="geometry"/>
                </mxCell>
                <mxCell id="14" value="" style="rounded=0;whiteSpace=wrap;html=1;" vertex="1" parent="13">
                    <mxGeometry width="480" height="80" as="geometry"/>
                </mxCell>
                <mxCell id="15" value="&lt;span style=&quot;font-size: 33px;&quot;&gt;&lt;b&gt;集計/グラフ表示画面&lt;/b&gt;&lt;/span&gt;" style="text;html=1;align=center;verticalAlign=middle;whiteSpace=wrap;rounded=0;" vertex="1" parent="13">
                    <mxGeometry x="30" y="29.090909090909093" width="420" height="21.818181818181824" as="geometry"/>
                </mxCell>
                <mxCell id="16" value="" style="group" vertex="1" connectable="0" parent="1">
                    <mxGeometry x="60" y="210" width="610" height="60" as="geometry"/>
                </mxCell>
                <mxCell id="17" value="利用者：" style="text;html=1;align=center;verticalAlign=middle;whiteSpace=wrap;rounded=0;fontSize=15;" vertex="1" parent="16">
                    <mxGeometry width="160" height="60" as="geometry"/>
                </mxCell>
                <mxCell id="18" value="" style="rounded=0;whiteSpace=wrap;html=1;" vertex="1" parent="16">
                    <mxGeometry x="130" y="15" width="140" height="30" as="geometry"/>
                </mxCell>
                <mxCell id="20" value="▼" style="text;html=1;align=center;verticalAlign=middle;whiteSpace=wrap;rounded=0;fontSize=15;" vertex="1" parent="16">
                    <mxGeometry x="180" width="160" height="60" as="geometry"/>
                </mxCell>
                <mxCell id="28" value="期間：" style="text;html=1;align=center;verticalAlign=middle;whiteSpace=wrap;rounded=0;fontSize=15;" vertex="1" parent="16">
                    <mxGeometry x="330" width="160" height="60" as="geometry"/>
                </mxCell>
                <mxCell id="23" value="～" style="text;html=1;align=center;verticalAlign=middle;whiteSpace=wrap;rounded=0;fontSize=15;" vertex="1" parent="16">
                    <mxGeometry x="453" width="160" height="60" as="geometry"/>
                </mxCell>
                <mxCell id="21" value="" style="rounded=0;whiteSpace=wrap;html=1;" vertex="1" parent="1">
                    <mxGeometry x="520" y="225" width="60" height="30" as="geometry"/>
                </mxCell>
                <mxCell id="22" value="" style="rounded=0;whiteSpace=wrap;html=1;" vertex="1" parent="1">
                    <mxGeometry x="610" y="225" width="60" height="30" as="geometry"/>
                </mxCell>
                <mxCell id="24" value="" style="group" vertex="1" connectable="0" parent="1">
                    <mxGeometry x="690" y="225" width="60" height="30" as="geometry"/>
                </mxCell>
                <mxCell id="25" value="" style="rounded=1;whiteSpace=wrap;html=1;" vertex="1" parent="24">
                    <mxGeometry width="60" height="30" as="geometry"/>
                </mxCell>
                <mxCell id="26" value="表示" style="text;html=1;align=center;verticalAlign=middle;whiteSpace=wrap;rounded=0;fontSize=19;" vertex="1" parent="24">
                    <mxGeometry x="8.5" y="7.5" width="43" height="15" as="geometry"/>
                </mxCell>
                <mxCell id="31" value="グラフ種類：" style="text;html=1;align=center;verticalAlign=middle;whiteSpace=wrap;rounded=0;fontSize=15;" vertex="1" parent="1">
                    <mxGeometry x="70" y="320" width="160" height="60" as="geometry"/>
                </mxCell>
                <mxCell id="32" value="折れ線（　）" style="text;html=1;align=center;verticalAlign=middle;whiteSpace=wrap;rounded=0;fontSize=15;" vertex="1" parent="1">
                    <mxGeometry x="230" y="320" width="160" height="60" as="geometry"/>
                </mxCell>
                <mxCell id="33" value="棒グラフ（　）" style="text;html=1;align=center;verticalAlign=middle;whiteSpace=wrap;rounded=0;fontSize=15;" vertex="1" parent="1">
                    <mxGeometry x="380" y="320" width="160" height="60" as="geometry"/>
                </mxCell>
                <mxCell id="34" value="レーダー（　）" style="text;html=1;align=center;verticalAlign=middle;whiteSpace=wrap;rounded=0;fontSize=15;" vertex="1" parent="1">
                    <mxGeometry x="550" y="320" width="160" height="60" as="geometry"/>
                </mxCell>
                <mxCell id="36" value="" style="shape=partialRectangle;whiteSpace=wrap;html=1;bottom=1;right=1;left=1;top=0;fillColor=none;routingCenterX=-0.5;" vertex="1" parent="1">
                    <mxGeometry x="110" y="420" width="630" height="320" as="geometry"/>
                </mxCell>
                <mxCell id="37" value="" style="edgeStyle=isometricEdgeStyle;endArrow=none;html=1;" edge="1" parent="1">
                    <mxGeometry width="50" height="100" relative="1" as="geometry">
                        <mxPoint x="188.2" y="690" as="sourcePoint"/>
                        <mxPoint x="240" y="590" as="targetPoint"/>
                        <Array as="points">
                            <mxPoint x="710" y="520"/>
                        </Array>
                    </mxGeometry>
                </mxCell>
                <mxCell id="38" value="集計サマリ" style="text;html=1;align=center;verticalAlign=middle;whiteSpace=wrap;rounded=0;fontSize=15;" vertex="1" parent="1">
                    <mxGeometry x="104" y="770" width="160" height="60" as="geometry"/>
                </mxCell>
                <mxCell id="39" value="・平均スコア：" style="text;html=1;align=center;verticalAlign=middle;whiteSpace=wrap;rounded=0;fontSize=15;" vertex="1" parent="1">
                    <mxGeometry x="104" y="840" width="160" height="60" as="geometry"/>
                </mxCell>
                <mxCell id="40" value="・最大：" style="text;html=1;align=center;verticalAlign=middle;whiteSpace=wrap;rounded=0;fontSize=15;" vertex="1" parent="1">
                    <mxGeometry x="326.5" y="840" width="160" height="60" as="geometry"/>
                </mxCell>
                <mxCell id="41" value="・最小：" style="text;html=1;align=center;verticalAlign=middle;whiteSpace=wrap;rounded=0;fontSize=15;" vertex="1" parent="1">
                    <mxGeometry x="560" y="840" width="160" height="60" as="geometry"/>
                </mxCell>
                <mxCell id="42" value="・総件数：" style="text;html=1;align=center;verticalAlign=middle;whiteSpace=wrap;rounded=0;fontSize=15;" vertex="1" parent="1">
                    <mxGeometry x="90" y="910" width="160" height="60" as="geometry"/>
                </mxCell>
                <mxCell id="44" value="" style="group" vertex="1" connectable="0" parent="1">
                    <mxGeometry x="564" y="1030" width="180" height="60" as="geometry"/>
                </mxCell>
                <mxCell id="11" value="" style="rounded=1;whiteSpace=wrap;html=1;container=0;" vertex="1" parent="44">
                    <mxGeometry width="180" height="60" as="geometry"/>
                </mxCell>
                <mxCell id="12" value="ホームに戻る" style="text;html=1;align=center;verticalAlign=middle;whiteSpace=wrap;rounded=0;fontSize=19;container=0;" vertex="1" parent="44">
                    <mxGeometry x="17" y="15" width="143" height="30" as="geometry"/>
                </mxCell>
            </root>
        </mxGraphModel>
    </diagram>
</mxfile>